HIERARCHY
ROOT Hips
{
	OFFSET 0.000000 0.000000 0.000000
	CHANNELS 6 Xposition Yposition Zposition Zrotation Yrotation Xrotation 
	JOINT LHipJoint
	{
		OFFSET 0.000000 0.000000 0.000000
		CHANNELS 3 Zrotation Yrotation Xrotation
		JOINT LeftUpLeg
		{
			OFFSET 1.363060 -1.794630 0.839290
			CHANNELS 3 Zrotation Yrotation Xrotation
			JOINT LeftLeg
			{
				OFFSET 2.448110 -6.726130 0.000000
				CHANNELS 3 Zrotation Yrotation Xrotation
				JOINT LeftFoot
				{
					OFFSET 2.562200 -7.039590 0.000000
					CHANNELS 3 Zrotation Yrotation Xrotation
					JOINT LeftToeBase
					{
						OFFSET 0.157640 -0.433110 2.322550
						CHANNELS 3 Zrotation Yrotation Xrotation
						End Site
						{
							OFFSET 0.000000 0.000000 0.000000
						}
					}
				}
			}
		}
	}
	JOINT RHipJoint
	{
		OFFSET 0.000000 0.000000 0.000000
		CHANNELS 3 Zrotation Yrotation Xrotation
		JOINT RightUpLeg
		{
			OFFSET -1.305520 -1.794630 0.839290
			CHANNELS 3 Zrotation Yrotation Xrotation
			JOINT RightLeg
			{
				OFFSET -2.542530 -6.985550 0.000000
				CHANNELS 3 Zrotation Yrotation Xrotation
				JOINT RightFoot
				{
					OFFSET -2.568260 -7.056230 0.000000
					CHANNELS 3 Zrotation Yrotation Xrotation
					JOINT RightToeBase
					{
						OFFSET -0.164730 -0.452590 2.363150
						CHANNELS 3 Zrotation Yrotation Xrotation
						End Site
						{
							OFFSET 0.000000 0.000000 0.000000
						}
					}
				}
			}
		}
	}
}
MOTION
Frames: 17
Frame Time: 0.008333
-1.470845 16.673551 0.081145 -1.419968 79.460996 11.858652 -10.202107 -0.484455 1.965513 -5.529174 -3.835229 -45.624515 -0.294512 2.612988 52.738833 3.409826 16.786481 -16.858680 -2.382200 0.000000 -4.657700 7.907270 -0.924536 1.895780 15.963975 9.418169 -20.206259 2.312704 -1.169072 33.530046 -3.293818 -7.029835 -28.134483 3.254200 0.000000 -0.369600
-1.304801 16.763373 0.130195 1.890220 79.696153 15.252791 -10.022491 -0.510362 2.115519 -6.401282 -3.977004 -45.127523 -0.506181 2.251803 48.350709 3.390161 16.509849 -15.548476 -1.922300 -0.000000 -5.131500 7.919472 -1.050305 1.895734 15.296071 8.919421 -18.293140 2.400243 -0.888051 30.281487 -3.163400 -6.718575 -27.110708 2.983900 0.000000 -0.687200
-1.136214 16.848387 0.179154 5.173349 79.952571 18.592970 -9.832740 -0.515379 2.239976 -7.354732 -3.977882 -44.488650 -0.725326 1.873041 43.775032 3.312636 16.022284 -14.028899 -1.393600 0.000000 -5.869700 7.985354 -1.190056 1.907020 14.624211 8.349730 -16.342576 2.475616 -0.607267 26.949970 -3.005309 -6.372864 -25.947669 2.687500 0.000001 -1.134000
-0.965401 16.927674 0.226936 8.264269 80.200543 21.717627 -9.633635 -0.490338 2.340558 -8.360869 -3.824937 -43.734050 -0.964655 1.485679 39.054223 3.163538 15.279461 -12.324549 -0.824700 -0.000001 -6.901100 8.109603 -1.336876 1.928397 13.969452 7.719922 -14.378585 2.533413 -0.330503 23.594287 -2.818154 -5.982967 -24.638144 2.367800 -0.000000 -1.739900
-0.792724 17.000359 0.272409 10.992971 80.410837 24.459975 -9.433334 -0.431687 2.422504 -9.382926 -3.516519 -42.898877 -1.236650 1.098612 34.247666 2.934204 14.254731 -10.472221 -0.256800 0.000000 -8.254000 8.284750 -1.486215 1.954336 13.352771 7.033318 -12.427654 2.571562 -0.062763 20.280191 -2.601189 -5.531767 -23.181327 2.029100 -0.000001 -2.545600
-0.618480 17.065758 0.314250 13.177873 80.559195 26.645990 -9.247668 -0.345498 2.493835 -10.373347 -3.059363 -42.033339 -1.548970 0.718800 29.434695 2.623512 12.937530 -8.525377 0.261000 -0.000000 -9.937300 8.488621 -1.637150 1.980400 12.800244 6.301600 -10.518125 2.592739 0.191122 17.068658 -2.357004 -5.008809 -21.583269 1.680300 -0.000001 -3.583300
-0.443225 17.123417 0.351678 14.784319 80.638549 28.237558 -9.089737 -0.247209 2.560158 -11.301300 -2.485725 -41.166104 -1.901050 0.347562 24.693177 2.241057 11.346685 -6.546096 0.680500 -0.000000 -11.945100 8.700898 -1.791143 1.993777 12.314156 5.503000 -8.669024 2.604090 0.424089 14.015479 -2.085006 -4.386142 -19.857995 1.329500 0.000000 -4.893200
-0.267312 17.173043 0.383945 15.760032 80.648118 29.185025 -8.972134 -0.156011 2.627070 -12.129204 -1.826234 -40.338946 -2.282026 -0.014439 20.113151 1.805170 9.512665 -4.608844 0.962800 0.000000 -14.254599 8.897197 -1.950436 1.987504 11.906021 4.628933 -6.898489 2.615240 0.632102 11.158799 -1.788003 -3.649171 -18.019492 0.989200 0.000000 -6.548900
-0.090932 17.214426 0.410533 16.066584 80.593652 29.459650 -8.902922 -0.089811 2.699051 -12.824878 -1.110102 -39.601489 -2.672860 -0.366520 15.781222 1.341039 7.480276 -2.791529 1.085500 -0.000001 -16.827200 9.054641 -2.115745 1.963860 11.590069 3.702093 -5.221614 2.634616 0.815032 8.518915 -1.475563 -2.811161 -16.098063 0.677800 -0.000000 -8.489600
0.085353 17.247602 0.431700 15.825378 80.486760 29.171692 -8.876941 -0.058742 2.774066 -13.391205 -0.373459 -38.955317 -3.052491 -0.708996 11.751069 0.877328 5.322303 -1.161154 1.050600 -0.000000 -19.574800 9.171035 -2.285016 1.911919 11.345696 2.688945 -3.635294 2.668327 0.970304 6.112433 -1.148762 -1.851110 -14.111414 0.407100 -0.000000 -10.812200
0.261369 17.272660 0.447669 15.067950 80.335168 28.360273 -8.889172 -0.065221 2.852341 -13.828345 0.367637 -38.430722 -3.400295 -1.038632 8.073996 0.439758 3.115354 0.225518 0.880200 -0.000000 -22.381900 9.240479 -2.454728 1.838789 11.172545 1.622935 -2.143754 2.718629 1.101056 3.941975 -0.820024 -0.796619 -12.102859 0.194500 -0.000000 -13.399801
0.436832 17.289806 0.459034 13.894129 80.148100 27.124601 -8.928616 -0.103658 2.931654 -14.155960 1.097059 -38.033502 -3.700795 -1.351299 4.779381 0.049009 0.954846 1.336004 0.615399 0.000000 -25.114000 9.268979 -2.620386 1.746354 11.053250 0.517123 -0.745026 2.784538 1.208756 2.010439 -0.497709 0.336277 -10.107753 0.050800 -0.000000 -16.233300
0.611601 17.299309 0.466489 12.385782 79.934373 25.554174 -8.984269 -0.163800 3.011821 -14.394238 1.800609 -37.777368 -3.944860 -1.641342 1.889784 -0.281382 -1.056639 2.161319 0.305900 0.000000 -27.652600 9.263628 -2.777283 1.642666 10.976571 -0.589880 0.556141 2.862620 1.296355 0.320390 -0.192907 1.513187 -8.178309 -0.018100 -0.000000 -19.182200
0.785574 17.301673 0.470810 10.635786 79.704683 23.751367 -9.045536 -0.233314 3.094074 -14.562632 2.457454 -37.668727 -4.129817 -1.902984 -0.580933 -0.544302 -2.810472 2.717049 0.002900 -0.000000 -29.912700 9.234404 -2.922177 1.535866 10.930376 -1.658087 1.752095 2.947799 1.365829 -1.124770 0.085451 2.695589 -6.360570 -0.014400 -0.000000 -22.174600
0.958675 17.297549 0.472848 8.732435 79.471372 21.815676 -9.104274 -0.300635 3.180344 -14.676188 3.044836 -37.713832 -4.258808 -2.130367 -2.619177 -0.738463 -4.210514 3.034973 -0.251600 0.000000 -31.851400 9.190415 -3.053113 1.434867 10.907373 -2.642792 2.831426 3.034720 1.418956 -2.320300 0.330203 3.839899 -4.703247 0.051700 0.000000 -25.104500
1.130944 17.287779 0.473456 6.761058 79.247279 19.842372 -9.155198 -0.356340 3.271006 -14.750726 3.547133 -37.918914 -4.340071 -2.317853 -4.206462 -0.867242 -5.194236 3.153101 -0.431000 0.000001 -33.457000 9.139292 -3.170172 1.347744 10.903158 -3.504227 3.782844 3.118490 1.456717 -3.261124 0.537367 4.904406 -3.247669 0.162900 -0.000000 -27.867100
1.302296 17.273222 0.473503 4.818744 79.048479 17.929823 -9.195340 -0.393539 3.363380 -14.806957 3.956303 -38.284240 -4.384621 -2.459776 -5.316862 -0.936511 -5.743718 3.104393 -0.525600 0.000001 -34.733300 9.088032 -3.274994 1.276021 10.908942 -4.231696 4.599719 3.195282 1.478003 -3.942758 0.707951 5.865347 -2.008178 0.300500 -0.000000 -30.531799
